<svg xmlns="http://www.w3.org/2000/svg" width="94" height="134" viewBox="0 0 94 134"><g transform="translate(-3524 2380)" fill="none" stroke-linecap="round" stroke-linejoin="round"><path d="M3611-2248h-80a5.006,5.006,0,0,1-5-5v-120a5.005,5.005,0,0,1,5-5h80a5.005,5.005,0,0,1,5,5v120A5.006,5.006,0,0,1,3611-2248Zm-10.5-60a8.509,8.509,0,0,0-8.5,8.5,8.51,8.51,0,0,0,8.5,8.5,8.51,8.51,0,0,0,8.5-8.5A8.509,8.509,0,0,0,3600.5-2308Zm-29.5-29a3,3,0,0,0-3,3v18a3,3,0,0,0,3,3h18a3,3,0,0,0,3-3v-18a3,3,0,0,0-3-3Zm-29,0a3,3,0,0,0-3,3v18a3,3,0,0,0,3,3h18a3,3,0,0,0,3-3v-18a3,3,0,0,0-3-3Zm29-29a3,3,0,0,0-3,3v18a3,3,0,0,0,3,3h18a3,3,0,0,0,3-3v-18a3,3,0,0,0-3-3Zm-29,0a3,3,0,0,0-3,3v18a3,3,0,0,0,3,3h18a3,3,0,0,0,3-3v-18a3,3,0,0,0-3-3Z" stroke="none"/><path d="M 3610.999755859375 -2247.999755859375 C 3613.7568359375 -2247.999755859375 3616 -2250.242919921875 3616 -2253 L 3616 -2373.000244140625 C 3616 -2375.7568359375 3613.7568359375 -2377.99951171875 3610.999755859375 -2377.99951171875 L 3531.000244140625 -2377.99951171875 C 3528.2431640625 -2377.99951171875 3526 -2375.7568359375 3526 -2373.000244140625 L 3526 -2253 C 3526 -2250.242919921875 3528.2431640625 -2247.999755859375 3531.000244140625 -2247.999755859375 L 3610.999755859375 -2247.999755859375 M 3600.5 -2307.999755859375 C 3605.186767578125 -2307.999755859375 3608.999755859375 -2304.186767578125 3608.999755859375 -2299.500244140625 C 3608.999755859375 -2294.81298828125 3605.186767578125 -2290.999755859375 3600.5 -2290.999755859375 C 3595.8134765625 -2290.999755859375 3592.00048828125 -2294.81298828125 3592.00048828125 -2299.500244140625 C 3592.00048828125 -2304.186767578125 3595.8134765625 -2307.999755859375 3600.5 -2307.999755859375 M 3571 -2336.999755859375 L 3589.000244140625 -2336.999755859375 C 3590.654541015625 -2336.999755859375 3592.00048828125 -2335.65380859375 3592.00048828125 -2333.99951171875 L 3592.00048828125 -2316.000244140625 C 3592.00048828125 -2314.345947265625 3590.654541015625 -2313.000244140625 3589.000244140625 -2313.000244140625 L 3571 -2313.000244140625 C 3569.345703125 -2313.000244140625 3567.999755859375 -2314.345947265625 3567.999755859375 -2316.000244140625 L 3567.999755859375 -2333.99951171875 C 3567.999755859375 -2335.65380859375 3569.345703125 -2336.999755859375 3571 -2336.999755859375 M 3542 -2336.999755859375 L 3560.000244140625 -2336.999755859375 C 3561.654052734375 -2336.999755859375 3562.99951171875 -2335.65380859375 3562.99951171875 -2333.99951171875 L 3562.99951171875 -2316.000244140625 C 3562.99951171875 -2314.345947265625 3561.654052734375 -2313.000244140625 3560.000244140625 -2313.000244140625 L 3542 -2313.000244140625 C 3540.345703125 -2313.000244140625 3539 -2314.345947265625 3539 -2316.000244140625 L 3539 -2333.99951171875 C 3539 -2335.65380859375 3540.345703125 -2336.999755859375 3542 -2336.999755859375 M 3571 -2365.999755859375 L 3589.000244140625 -2365.999755859375 C 3590.654541015625 -2365.999755859375 3592.00048828125 -2364.65380859375 3592.00048828125 -2362.99951171875 L 3592.00048828125 -2345.000244140625 C 3592.00048828125 -2343.345947265625 3590.654541015625 -2342 3589.000244140625 -2342 L 3571 -2342 C 3569.345703125 -2342 3567.999755859375 -2343.345947265625 3567.999755859375 -2345.000244140625 L 3567.999755859375 -2362.99951171875 C 3567.999755859375 -2364.65380859375 3569.345703125 -2365.999755859375 3571 -2365.999755859375 M 3542 -2365.999755859375 L 3560.000244140625 -2365.999755859375 C 3561.654052734375 -2365.999755859375 3562.99951171875 -2364.65380859375 3562.99951171875 -2362.99951171875 L 3562.99951171875 -2345.000244140625 C 3562.99951171875 -2343.345947265625 3561.654052734375 -2342 3560.000244140625 -2342 L 3542 -2342 C 3540.345703125 -2342 3539 -2343.345947265625 3539 -2345.000244140625 L 3539 -2362.99951171875 C 3539 -2364.65380859375 3540.345703125 -2365.999755859375 3542 -2365.999755859375 M 3610.999755859375 -2245.999755859375 L 3531.000244140625 -2245.999755859375 C 3527.140380859375 -2245.999755859375 3524 -2249.14013671875 3524 -2253 L 3524 -2373.000244140625 C 3524 -2376.859619140625 3527.140380859375 -2379.99951171875 3531.000244140625 -2379.99951171875 L 3610.999755859375 -2379.99951171875 C 3614.859619140625 -2379.99951171875 3618 -2376.859619140625 3618 -2373.000244140625 L 3618 -2253 C 3618 -2249.14013671875 3614.859619140625 -2245.999755859375 3610.999755859375 -2245.999755859375 Z M 3600.5 -2305.999755859375 C 3596.916259765625 -2305.999755859375 3594.00048828125 -2303.083984375 3594.00048828125 -2299.500244140625 C 3594.00048828125 -2295.915771484375 3596.916259765625 -2292.999755859375 3600.5 -2292.999755859375 C 3604.083984375 -2292.999755859375 3606.999755859375 -2295.915771484375 3606.999755859375 -2299.500244140625 C 3606.999755859375 -2303.083984375 3604.083984375 -2305.999755859375 3600.5 -2305.999755859375 Z M 3571 -2334.999755859375 C 3570.448486328125 -2334.999755859375 3569.999755859375 -2334.551025390625 3569.999755859375 -2333.99951171875 L 3569.999755859375 -2316.000244140625 C 3569.999755859375 -2315.44873046875 3570.448486328125 -2315.000244140625 3571 -2315.000244140625 L 3589.000244140625 -2315.000244140625 C 3589.5517578125 -2315.000244140625 3590.00048828125 -2315.44873046875 3590.00048828125 -2316.000244140625 L 3590.00048828125 -2333.99951171875 C 3590.00048828125 -2334.551025390625 3589.5517578125 -2334.999755859375 3589.000244140625 -2334.999755859375 L 3571 -2334.999755859375 Z M 3542 -2334.999755859375 C 3541.448486328125 -2334.999755859375 3541 -2334.551025390625 3541 -2333.99951171875 L 3541 -2316.000244140625 C 3541 -2315.44873046875 3541.448486328125 -2315.000244140625 3542 -2315.000244140625 L 3560.000244140625 -2315.000244140625 C 3560.55126953125 -2315.000244140625 3560.99951171875 -2315.44873046875 3560.99951171875 -2316.000244140625 L 3560.99951171875 -2333.99951171875 C 3560.99951171875 -2334.551025390625 3560.55126953125 -2334.999755859375 3560.000244140625 -2334.999755859375 L 3542 -2334.999755859375 Z M 3571 -2363.999755859375 C 3570.448486328125 -2363.999755859375 3569.999755859375 -2363.551025390625 3569.999755859375 -2362.99951171875 L 3569.999755859375 -2345.000244140625 C 3569.999755859375 -2344.44873046875 3570.448486328125 -2344 3571 -2344 L 3589.000244140625 -2344 C 3589.5517578125 -2344 3590.00048828125 -2344.44873046875 3590.00048828125 -2345.000244140625 L 3590.00048828125 -2362.99951171875 C 3590.00048828125 -2363.551025390625 3589.5517578125 -2363.999755859375 3589.000244140625 -2363.999755859375 L 3571 -2363.999755859375 Z M 3542 -2363.999755859375 C 3541.448486328125 -2363.999755859375 3541 -2363.551025390625 3541 -2362.99951171875 L 3541 -2345.000244140625 C 3541 -2344.44873046875 3541.448486328125 -2344 3542 -2344 L 3560.000244140625 -2344 C 3560.55126953125 -2344 3560.99951171875 -2344.44873046875 3560.99951171875 -2345.000244140625 L 3560.99951171875 -2362.99951171875 C 3560.99951171875 -2363.551025390625 3560.55126953125 -2363.999755859375 3560.000244140625 -2363.999755859375 L 3542 -2363.999755859375 Z" stroke="none" fill="#3a85fb"/></g></svg>
